<?xml version="1.0" standalone="no"?>
<!DOCTYPE svg PUBLIC "-//W3C//DTD SVG 20010904//EN"
 "http://www.w3.org/TR/2001/REC-SVG-20010904/DTD/svg10.dtd">
<svg version="1.0" xmlns="http://www.w3.org/2000/svg"
 width="551.000000pt" height="551.000000pt" viewBox="0 0 551.000000 551.000000"
 preserveAspectRatio="xMidYMid meet">
<metadata>
Created by potrace 1.14, written by Peter Selinger 2001-2017
</metadata>
<g transform="translate(0.000000,551.000000) scale(0.100000,-0.100000)"
fill="#000000" stroke="none">
<path d="M1 4588 c1 -567 5 -882 10 -818 20 260 51 690 69 945 6 83 15 209 20
280 5 72 14 202 20 290 6 88 12 175 15 193 l4 32 -70 0 -69 0 1 -922z"/>
<path d="M5470 3945 c0 -1542 0 -1565 -19 -1565 -12 0 -33 18 -52 45 -42 59
-69 75 -123 75 -51 0 -60 12 -51 75 4 26 1 62 -10 99 -11 38 -15 73 -11 101 4
24 2 91 -4 149 -11 106 -11 107 14 139 42 54 73 136 92 240 15 85 16 108 6
170 -16 95 -53 154 -115 187 -38 20 -50 33 -61 68 -14 41 -14 43 3 37 13 -4
25 3 40 22 12 15 20 21 19 13 -4 -20 2 -23 27 -15 11 4 25 8 32 10 6 2 13 23
15 47 l3 43 20 -32 c28 -48 50 -44 29 5 -9 20 -19 50 -23 66 -3 16 -28 54 -54
85 -53 62 -138 188 -182 270 -37 67 -102 125 -182 161 -34 16 -79 42 -101 59
-21 17 -85 52 -143 77 -57 25 -120 58 -139 73 -59 46 -68 49 -204 66 -21 2
-44 9 -50 14 -7 6 -28 6 -56 0 -25 -6 -77 -12 -117 -14 -40 -2 -98 -11 -130
-19 -36 -10 -61 -12 -67 -6 -6 6 -22 2 -42 -10 -17 -11 -58 -29 -90 -41 -33
-11 -77 -34 -99 -52 -55 -43 -155 -140 -155 -148 0 -4 16 -13 35 -20 19 -7 35
-16 35 -21 0 -4 6 -5 14 -2 8 3 23 1 33 -5 17 -10 17 -10 -1 -11 -13 0 -16 -5
-12 -17 6 -15 3 -14 -16 3 -55 49 -100 67 -155 60 -63 -7 -148 -39 -265 -98
-21 -10 -38 -16 -38 -13 0 4 48 29 108 56 59 27 118 56 132 64 14 9 50 29 80
45 30 17 70 43 89 59 l35 29 -39 35 c-36 33 -72 48 -123 49 -33 0 -121 -46
-167 -89 -86 -81 -80 -78 -110 -51 -38 36 -86 35 -128 -2 -19 -17 -50 -35 -69
-42 -18 -6 -52 -28 -75 -50 -24 -21 -46 -38 -50 -38 -5 0 -48 -39 -98 -86 -49
-47 -107 -95 -127 -105 l-37 -19 6 -79 c7 -88 15 -76 -102 -151 -175 -112
-229 -215 -242 -455 -6 -116 -14 -144 -41 -139 -7 1 -8 0 -3 -2 5 -3 7 -22 4
-43 -7 -50 11 -101 42 -124 22 -15 25 -16 25 -2 0 8 -7 15 -16 15 -19 0 -47
65 -39 93 19 66 45 82 45 28 0 -46 47 -200 86 -278 41 -85 71 -123 122 -155
37 -23 39 -23 312 -20 307 4 350 -2 401 -60 34 -40 57 -33 127 40 40 41 50 47
39 26 -16 -30 -55 -69 -97 -97 -24 -17 -24 -17 -3 -17 12 0 26 -8 32 -17 11
-21 10 -22 43 37 33 58 54 75 103 89 49 13 58 4 76 -75 11 -51 11 -54 -15 -84
-14 -17 -27 -36 -27 -41 -11 -78 -40 -104 -60 -52 -13 34 -6 61 23 93 13 15
29 36 35 48 14 24 6 85 -11 79 -6 -2 -30 -32 -53 -66 -55 -80 -56 -117 -9
-209 75 -144 77 -150 58 -148 -16 1 -28 12 -92 86 l-21 25 18 -33 c64 -119
279 -344 372 -392 66 -33 225 -140 235 -157 5 -9 11 -11 15 -6 8 13 183 -13
228 -33 17 -8 35 -14 40 -14 6 0 18 -8 27 -19 13 -14 16 -31 12 -72 -2 -30 1
-83 6 -118 8 -51 18 -72 45 -102 20 -22 40 -39 47 -39 6 -1 29 -9 51 -20 52
-25 97 -27 88 -3 -4 11 -3 14 5 9 17 -10 15 -46 -3 -46 -11 0 -10 -5 6 -21 12
-12 24 -17 28 -13 3 5 16 14 28 21 17 10 23 10 26 0 3 -7 6 -2 6 10 1 12 9 24
21 28 11 3 20 11 20 16 0 5 7 9 15 9 8 0 15 9 15 20 0 11 2 20 5 20 14 0 65
-31 65 -40 0 -5 7 -7 15 -4 8 4 17 -1 21 -10 13 -35 51 -18 98 45 25 34 46 66
46 72 0 6 3 8 6 4 6 -6 -3 -28 -88 -206 -32 -68 -62 -121 -65 -118 -3 3 -24
-20 -48 -51 -23 -31 -51 -65 -62 -74 -31 -28 -164 -67 -280 -82 l-42 -6 -39
82 c-21 46 -57 108 -80 138 -23 30 -54 89 -69 130 -27 76 -98 256 -135 343
-11 26 -24 47 -29 47 -33 0 -131 -225 -169 -390 -32 -138 -16 -119 -157 -190
-84 -42 -146 -80 -179 -112 -28 -26 -54 -48 -58 -48 -10 0 -86 -63 -86 -72 0
-4 6 -5 14 -2 22 8 28 -13 13 -38 -26 -41 -36 -90 -47 -237 -7 -91 -20 -182
-37 -245 -14 -55 -27 -130 -29 -166 -1 -36 -6 -95 -10 -132 -4 -41 -3 -68 3
-68 8 0 67 77 150 198 88 127 111 111 32 -22 -44 -75 -111 -172 -165 -239 -16
-19 -19 -67 -5 -67 5 0 12 8 14 17 4 17 5 17 6 0 1 -14 8 -18 33 -15 31 3 37
10 90 113 55 107 76 180 95 335 l5 35 -24 -27 c-21 -23 -57 -48 -72 -48 -9 0
-1 30 18 72 9 21 16 41 16 45 0 4 12 24 26 45 25 35 66 142 118 308 27 86 81
203 101 220 8 6 25 10 40 8 l26 -3 -32 -38 c-21 -25 -41 -71 -60 -135 -16 -53
-42 -128 -58 -167 -16 -38 -29 -89 -29 -111 -1 -23 -8 -75 -16 -116 -9 -42
-18 -108 -22 -149 -3 -41 -13 -100 -20 -132 -10 -40 -12 -63 -5 -75 6 -9 11
-15 11 -12 1 3 3 25 5 48 2 27 14 59 32 84 42 59 92 151 93 168 0 8 6 27 14
42 10 18 11 28 4 30 -8 3 -7 18 3 49 11 35 19 45 40 47 19 2 28 -3 37 -22 14
-30 7 -57 -50 -190 -40 -94 -43 -98 -53 -72 -11 25 -12 24 -44 -42 -18 -37
-37 -75 -42 -84 -12 -23 -11 -31 1 -23 6 3 10 1 10 -6 0 -7 8 -6 25 5 25 16
25 16 25 -14 0 -42 0 -43 12 -57 5 -7 11 -40 11 -73 l2 -61 122 2 c115 1 121
2 111 19 -15 23 13 274 38 340 10 28 17 84 19 146 2 55 8 127 14 160 6 32 13
76 16 96 6 40 35 68 70 68 54 0 165 -200 124 -225 -6 -4 -8 -14 -5 -22 4 -9 2
-21 -3 -27 -5 -6 -5 -19 0 -31 9 -18 9 -18 5 3 -2 12 -1 22 3 22 4 0 22 44 40
97 18 54 51 142 73 196 l41 98 69 34 c75 38 233 133 287 174 l34 25 -8 -24
c-31 -103 -68 -142 -175 -186 -57 -23 -64 -24 -86 -9 -28 18 -35 19 -31 4 1
-6 -14 -17 -33 -23 -48 -17 -85 -88 -155 -302 -45 -138 -56 -187 -60 -259 -7
-121 -18 -123 -13 -2 1 53 2 93 0 87 -2 -5 -8 -10 -13 -10 -6 0 -9 34 -8 83 3
113 -9 201 -26 187 -13 -11 -13 -99 0 -327 4 -74 3 -91 -8 -87 -8 3 -20 -9
-29 -28 -26 -54 -33 -9 -15 94 11 60 13 96 7 108 -5 10 -8 72 -5 137 4 125 -2
156 -25 128 -12 -15 -20 -44 -40 -153 -10 -55 -12 -504 -3 -559 l5 -33 64 0
64 0 0 53 c0 28 -4 79 -10 111 -6 39 -6 64 1 75 8 13 9 13 8 1 -4 -40 2 -81
11 -75 6 4 9 -25 7 -80 -2 -61 1 -85 10 -85 7 0 14 20 18 47 11 82 16 103 26
103 6 0 7 -9 3 -22 -4 -13 -8 -47 -8 -75 -1 -43 2 -53 15 -53 20 0 19 -2 55
198 l27 153 -22 43 c-17 34 -19 49 -12 69 15 38 55 61 88 51 28 -8 27 -8 -9
-12 -20 -2 -42 -10 -50 -19 -12 -15 -11 -15 10 -4 28 15 40 8 22 -14 -7 -8
-11 -33 -8 -60 2 -25 1 -45 -2 -45 -3 0 -6 -44 -7 -97 -1 -58 -8 -117 -17
-144 -9 -25 -17 -55 -19 -67 -2 -12 -6 -25 -10 -28 -15 -15 -6 -22 26 -21 32
2 32 2 44 74 18 112 53 233 80 283 21 38 32 87 35 150 1 43 20 114 34 133 16
22 16 22 11 -8 -3 -16 -10 -57 -17 -90 -6 -33 -14 -73 -16 -89 -6 -33 -37
-152 -54 -206 -10 -36 -50 -225 -50 -241 0 -5 11 -9 24 -9 28 0 28 0 112 377
26 116 142 370 201 439 16 20 21 22 14 8 -6 -12 -8 -24 -4 -27 3 -4 -1 -17 -9
-29 -8 -13 -27 -63 -42 -111 -16 -48 -52 -127 -81 -175 -29 -48 -56 -103 -59
-122 -4 -19 -4 -30 1 -24 4 6 18 14 31 18 12 4 39 27 59 52 21 24 41 44 45 44
19 0 -30 -81 -80 -131 -45 -44 -62 -70 -82 -125 -14 -38 -28 -85 -31 -104 -3
-19 -9 -47 -14 -62 -7 -27 -6 -28 34 -28 40 0 40 0 75 73 19 39 57 115 84 167
28 52 74 145 104 205 30 61 95 178 145 260 49 83 97 164 107 182 19 38 46 35
46 -6 0 -38 -47 -166 -82 -223 -23 -37 -31 -66 -38 -135 -5 -48 -18 -117 -29
-153 -10 -36 -36 -121 -56 -190 -21 -69 -40 -137 -42 -152 l-5 -28 94 0 94 0
32 78 c32 76 70 146 117 210 13 18 36 65 51 105 32 82 70 145 76 126 6 -18 63
18 157 98 54 46 78 60 87 52 8 -7 14 -6 17 3 4 10 6 10 6 -1 1 -14 -52 -64
-123 -115 -23 -16 -43 -33 -45 -39 -2 -5 -16 -24 -32 -42 -16 -18 -29 -37 -29
-43 0 -6 -6 -17 -13 -24 -23 -23 -97 -142 -97 -156 0 -27 -42 -108 -70 -132
-31 -28 -70 -88 -70 -107 0 -10 60 -13 266 -13 l266 0 -5 150 c-2 83 -7 154
-11 157 -3 4 -6 -11 -7 -33 0 -21 -4 -48 -9 -59 -5 -12 -8 114 -8 300 1 176 4
295 8 265 4 -41 7 -49 12 -30 3 14 4 3 3 -25 -2 -34 -1 -44 5 -30 5 11 9 1099
9 2418 1 2391 1 2397 -19 2397 -20 0 -20 -7 -20 -1565z m-1988 453 c49 -14
125 -82 166 -145 136 -213 175 -603 77 -768 -35 -60 -112 -132 -185 -173 -94
-53 -613 -282 -830 -367 -197 -77 -253 -75 -333 14 -46 52 -67 93 -107 216
-30 89 -34 116 -38 240 -2 80 1 166 7 200 16 89 63 177 123 229 105 92 815
489 974 544 70 24 94 26 146 10z m202 -27 c19 -7 19 -8 1 -15 -11 -4 -21 -2
-26 5 -4 6 -12 8 -18 5 -6 -4 -11 -2 -11 3 0 12 26 13 54 2z m8 -28 c-6 -2
-10 -9 -6 -14 3 -5 0 -9 -5 -9 -12 0 -14 13 -4 23 3 4 11 7 17 6 6 0 5 -3 -2
-6z m92 -13 c-21 -8 -37 -3 -29 10 3 4 15 6 27 2 21 -5 21 -6 2 -12z m326 -30
c91 -15 265 -68 302 -92 14 -10 31 -18 38 -18 6 0 8 -4 5 -10 -3 -5 2 -10 12
-10 10 0 25 -5 33 -10 28 -18 -61 -4 -150 23 -30 9 -120 33 -200 52 -136 33
-178 53 -164 77 3 4 15 6 27 4 12 -2 56 -10 97 -16z m-150 -25 c0 -20 11 -62
24 -94 42 -97 68 -180 61 -191 -3 -6 1 -17 10 -26 18 -18 17 -55 -1 -61 -7 -2
-15 11 -18 29 -4 18 -13 47 -21 63 -12 25 -14 26 -9 5 4 -16 3 -21 -3 -15 -5
6 -22 57 -38 115 -15 58 -30 114 -33 124 -3 12 -1 17 6 12 8 -4 8 3 1 26 -12
44 -12 48 6 48 11 0 15 -11 15 -35z m-900 4 c-25 -17 -96 -52 -87 -43 12 12
81 52 92 53 6 0 3 -4 -5 -10z m-140 -74 c0 -2 -18 -14 -40 -25 -22 -11 -40
-18 -40 -15 0 2 17 13 38 24 42 23 42 23 42 16z m1851 -86 c9 -5 24 -27 33
-49 16 -40 42 -58 91 -65 29 -3 95 -37 95 -48 0 -5 7 -7 15 -3 8 3 15 1 15 -4
0 -6 -5 -10 -11 -10 -5 0 -7 -5 -3 -11 8 -14 -35 -2 -56 16 -8 7 -21 10 -27 8
-7 -3 -13 1 -14 9 0 7 -5 2 -10 -11 -5 -13 -7 -33 -4 -45 3 -12 -3 -5 -15 14
l-20 35 6 -44 c5 -40 30 -128 49 -174 7 -17 6 -18 -14 -6 -11 8 -21 24 -21 36
0 42 -93 300 -122 339 -11 15 -68 -4 -68 -22 0 -9 44 -158 64 -219 4 -11 -1
-4 -12 15 -10 19 -32 78 -47 130 -16 52 -36 103 -44 114 -15 18 -14 18 44 11
33 -4 67 -11 76 -16z m-922 -45 c4 3 6 -5 5 -17 -1 -12 -3 -29 -4 -37 -1 -8
-10 10 -20 40 -23 64 -25 90 -4 42 8 -18 18 -31 23 -28z m891 -25 c0 -6 -4 -7
-10 -4 -5 3 -10 11 -10 16 0 6 5 7 10 4 6 -3 10 -11 10 -16z m10 -35 c0 -8 -4
-12 -10 -9 -5 3 -10 10 -10 16 0 5 5 9 10 9 6 0 10 -7 10 -16z m12 -54 c5 -33
-6 -28 -17 8 -3 12 -2 22 3 22 5 0 12 -14 14 -30z m281 -25 c-3 -9 -8 -14 -10
-11 -3 3 -2 9 2 15 9 16 15 13 8 -4z m97 -43 c12 -44 13 -82 2 -82 -9 0 -32
80 -32 111 0 31 18 13 30 -29z m-322 -87 c-3 -3 -9 2 -12 12 -6 14 -5 15 5 6
7 -7 10 -15 7 -18z m297 -165 c3 -5 -1 -10 -9 -10 -8 0 -18 5 -21 10 -3 6 1
10 9 10 8 0 18 -4 21 -10z m-41 -9 c4 -5 -3 -7 -14 -4 -23 6 -26 13 -6 13 8 0
17 -4 20 -9z m-58 -23 c-1 -7 -8 -24 -15 -38 l-13 -25 21 23 c34 34 34 26 0
-22 -18 -24 -33 -57 -35 -73 -11 -85 -12 -127 -3 -155 7 -24 4 -41 -9 -70 -19
-41 -28 -47 -35 -20 -3 10 -6 5 -7 -13 -2 -30 -2 -30 -10 -5 -4 14 -9 18 -9
10 -4 -38 -32 72 -33 130 -2 73 8 97 63 154 20 21 45 56 56 77 17 38 33 52 29
27z m115 -43 c5 4 6 -1 3 -10 -5 -11 -2 -14 10 -9 12 5 15 2 9 -12 -4 -12 -3
-15 5 -10 8 4 12 0 12 -11 0 -10 7 -27 15 -37 8 -11 15 -38 15 -60 0 -29 3
-37 9 -27 7 11 11 5 16 -21 4 -22 2 -44 -4 -55 -9 -14 -10 -10 -5 22 3 26 2
35 -4 27 -7 -11 -10 -10 -16 3 -3 9 -6 26 -6 38 0 18 -2 19 -10 7 -7 -10 -10
-11 -11 -2 -3 24 -4 27 -27 64 -13 21 -20 43 -16 49 4 7 3 9 -3 6 -12 -8 -25
31 -16 47 4 6 8 6 11 -2 2 -7 8 -10 13 -7z m110 -279 c-6 -7 -8 -15 -5 -18 16
-16 -47 -95 -76 -95 -8 0 -26 -3 -40 -5 -14 -3 -18 -3 -10 0 12 4 11 6 -5 13
-17 6 -15 8 11 8 41 1 76 30 99 80 10 22 22 38 27 35 5 -3 5 -11 -1 -18z
m-2072 -324 c13 -12 21 -25 17 -29 -11 -11 -86 69 -86 92 1 17 3 16 23 -10 12
-16 33 -40 46 -53z m-99 64 c0 -2 -7 -7 -16 -10 -8 -3 -12 -2 -9 4 6 10 25 14
25 6z m2010 -111 c6 -19 8 -40 4 -47 -4 -7 -3 -10 1 -6 12 11 45 -89 44 -132
-1 -34 -1 -34 -11 10 -5 25 -16 50 -24 56 -9 7 -12 19 -7 29 4 12 3 16 -4 12
-14 -9 -26 27 -27 80 -1 48 8 47 24 -2z m-30 9 c0 -8 -5 -12 -10 -9 -6 4 -8
11 -5 16 9 14 15 11 15 -7z m-1499 -195 c-17 -16 -21 -17 -21 -4 0 8 4 15 9
15 5 0 13 10 17 23 7 19 8 20 12 4 2 -11 -6 -28 -17 -38z m-34 -14 c0 -8 -4
-15 -9 -15 -10 0 -11 14 -1 23 9 10 10 9 10 -8z m1619 -78 c-5 -21 17 -51 29
-39 4 4 4 -3 1 -15 -4 -12 -2 -30 5 -41 13 -21 5 -72 -12 -72 -6 0 -9 7 -5 15
3 8 1 15 -4 15 -6 0 -10 8 -10 18 0 10 -3 22 -7 26 -10 10 -30 110 -25 125 7
21 34 -10 28 -32z m-1426 25 c0 -4 -17 -16 -37 -27 -39 -19 -133 -103 -133
-117 0 -4 15 -22 32 -39 29 -28 31 -32 15 -40 -26 -15 -57 -51 -51 -60 2 -4
16 3 29 15 14 13 46 31 72 40 27 10 59 22 73 29 14 6 37 12 53 14 l27 3 -25
-50 c-25 -49 -34 -79 -15 -50 7 11 10 6 10 -22 0 -38 -29 -78 -57 -78 -8 0
-11 -4 -8 -10 3 -5 2 -10 -4 -10 -5 0 -13 -9 -16 -20 -3 -11 -13 -20 -21 -20
-8 0 -13 -4 -9 -9 3 -5 1 -12 -4 -16 -6 -3 -7 -13 -4 -21 5 -14 3 -15 -18 -4
-44 24 -80 74 -139 198 -65 139 -66 149 -8 211 34 36 75 57 153 76 61 15 85
17 85 7z m1486 -222 c4 -16 10 -28 13 -25 4 2 5 -10 3 -28 -3 -18 -7 -26 -10
-18 -4 11 -6 11 -14 0 -5 -9 -6 -5 -2 14 3 15 2 27 -2 27 -5 0 -9 14 -10 30
-1 39 15 39 22 0z m-26 -1 c0 -6 -4 -7 -10 -4 -5 3 -10 11 -10 16 0 6 5 7 10
4 6 -3 10 -11 10 -16z m-286 -980 c-8 -28 -23 -65 -33 -82 -9 -18 -30 -67 -45
-110 -16 -43 -31 -76 -33 -73 -6 6 27 103 61 180 14 32 30 75 36 97 6 21 15
39 20 39 5 0 2 -23 -6 -51z m-829 -188 c-10 -9 -35 70 -34 106 1 34 3 30 19
-32 11 -38 17 -71 15 -74z m-271 -337 c-25 -49 -26 -59 -20 -127 9 -102 -4
-127 -77 -151 -15 -5 -17 -2 -11 17 3 12 13 25 20 30 24 14 44 38 44 53 0 16
-36 19 -45 4 -7 -12 -106 -62 -112 -56 -2 2 12 14 32 26 52 32 79 74 114 175
28 82 31 100 31 218 l0 128 -45 -38 c-51 -43 -140 -170 -179 -255 -14 -31 -26
-60 -26 -63 0 -18 -44 -104 -55 -108 -27 -11 -4 72 52 183 81 160 120 210 226
281 31 22 58 45 58 52 1 7 6 -62 11 -152 l9 -164 -27 -53z m146 336 c8 -15 8
-20 -3 -20 -7 0 -13 9 -14 20 -1 11 0 20 2 20 2 0 9 -9 15 -20z m-83 -32 c-3
-8 -6 -5 -6 6 -1 11 2 17 5 13 3 -3 4 -12 1 -19z m133 -94 c11 -47 15 -85 10
-98 -6 -18 -9 -15 -14 19 -4 22 -13 70 -20 108 -17 91 1 69 24 -29z m-143 19
c-3 -10 -5 -2 -5 17 0 19 2 27 5 18 2 -10 2 -26 0 -35z m77 -5 c4 -24 2 -65
-3 -93 -9 -46 -14 -113 -12 -142 1 -7 12 -13 24 -13 25 0 47 33 47 70 0 15 7
20 25 20 20 0 27 -6 31 -29 6 -30 6 -30 27 -10 11 10 22 17 24 15 8 -8 -22
-46 -40 -52 -10 -3 -24 -16 -33 -29 -18 -28 -88 -58 -115 -50 -41 13 -71 117
-46 156 8 13 21 63 28 112 13 96 32 115 43 45z m833 -3 c-15 -14 -33 -25 -38
-25 -6 0 3 11 18 25 15 13 33 24 38 24 6 0 -3 -11 -18 -24z m632 -135 c-12
-129 -39 -222 -68 -236 -13 -7 -28 -18 -33 -26 -6 -9 -7 -6 -3 10 5 17 2 22
-12 22 -17 1 -17 1 0 11 9 5 17 14 17 20 0 5 9 22 20 37 12 16 26 66 36 127 9
55 21 111 26 125 17 46 26 0 17 -90z m-597 54 c29 -14 76 -42 103 -62 59 -42
83 -64 40 -37 -96 60 -155 94 -197 111 -27 10 -48 22 -48 26 0 9 33 -3 102
-38z m633 -121 c-8 -42 -45 -146 -51 -141 -2 2 3 26 12 53 8 28 19 67 25 88
13 48 23 48 14 0z m-365 -58 c0 -8 -68 36 -82 52 -7 10 8 2 35 -16 26 -17 47
-34 47 -36z m-866 -124 c-5 -6 -79 47 -101 71 -10 12 10 1 43 -23 34 -24 60
-46 58 -48z m142 -138 c-3 -14 -10 -31 -15 -36 -9 -9 -7 12 5 51 7 23 14 12
10 -15z m-547 -36 c-8 -7 -21 -21 -27 -32 -11 -18 -12 -16 -9 15 2 20 9 34 16
33 6 -2 11 2 11 9 0 9 3 9 13 -1 10 -10 9 -15 -4 -24z m76 16 c-3 -10 -13 -46
-21 -80 -8 -35 -28 -97 -44 -140 -16 -42 -33 -92 -36 -110 -7 -36 -24 -55 -24
-26 0 19 70 259 96 331 9 23 20 42 26 42 6 0 7 -8 3 -17z m1358 -74 c-8 -8
-13 -7 -18 2 -5 8 -4 10 3 5 7 -4 12 -2 12 5 0 7 3 9 7 6 4 -4 2 -12 -4 -18z
m-883 -100 c0 -17 -37 -56 -45 -47 -3 3 1 11 10 18 8 7 15 27 15 44 0 24 3 27
10 16 5 -8 10 -22 10 -31z m-603 -246 c-3 -10 -5 -4 -5 12 0 17 2 24 5 18 2
-7 2 -21 0 -30z m420 -15 c-3 -7 -5 -2 -5 12 0 14 2 19 5 13 2 -7 2 -19 0 -25z
m-430 -70 c-3 -7 -5 -2 -5 12 0 14 2 19 5 13 2 -7 2 -19 0 -25z"/>
<path d="M3961 4184 c0 -11 3 -14 6 -6 3 7 2 16 -1 19 -3 4 -6 -2 -5 -13z"/>
<path d="M3991 4044 c0 -11 3 -14 6 -6 3 7 2 16 -1 19 -3 4 -6 -2 -5 -13z"/>
<path d="M4956 3962 c-3 -6 -1 -14 5 -17 14 -9 20 -2 10 14 -6 8 -11 9 -15 3z"/>
<path d="M5141 3494 c0 -11 3 -14 6 -6 3 7 2 16 -1 19 -3 4 -6 -2 -5 -13z"/>
<path d="M5131 2564 c0 -11 3 -14 6 -6 3 7 2 16 -1 19 -3 4 -6 -2 -5 -13z"/>
<path d="M3689 2338 c-6 -21 -5 -38 2 -38 5 0 9 9 9 20 0 16 -7 28 -11 18z"/>
<path d="M3850 958 c0 -32 9 -58 20 -58 10 0 3 47 -10 69 -7 13 -9 10 -10 -11z"/>
<path d="M3075 4573 c-49 -1 -178 -10 -285 -19 -107 -9 -210 -17 -228 -19 -18
-1 -35 -5 -38 -8 -7 -7 15 -295 24 -317 10 -24 18 171 9 214 -5 24 -4 43 2 49
5 5 40 13 78 16 37 4 77 11 88 17 11 5 27 9 35 8 8 -1 21 -2 28 -3 6 0 12 -8
12 -16 0 -19 14 -19 43 0 49 32 156 56 235 54 80 -3 126 6 117 22 -4 5 -12 8
-18 7 -7 -1 -52 -3 -102 -5z"/>
<path d="M840 2085 c0 -56 -19 -312 -25 -346 -6 -35 4 -37 34 -6 18 20 23 40
28 123 7 117 -3 225 -22 251 -13 16 -14 14 -15 -22z"/>
<path d="M1075 2077 c-4 -20 -6 -125 -3 -232 3 -175 2 -191 -11 -162 -9 21
-16 84 -20 179 -6 155 -20 212 -22 87 0 -41 -4 -96 -7 -124 -7 -47 -9 -50 -35
-48 -15 1 -27 -2 -27 -7 0 -4 18 -31 41 -60 46 -59 60 -109 35 -129 -21 -18
-31 -8 -17 17 13 24 -2 32 -39 21 -14 -4 -20 -7 -14 -8 14 -1 66 -116 62 -138
-3 -15 -8 -13 -31 12 -41 45 -35 9 10 -56 20 -29 42 -72 49 -95 7 -25 32 -62
58 -90 25 -26 46 -45 46 -41 0 11 -24 61 -41 87 -9 14 -19 34 -21 45 -1 11 -7
23 -13 28 -9 7 19 37 36 37 14 0 31 -61 27 -95 -2 -19 -1 -35 3 -35 4 0 14 -3
23 -6 19 -7 22 32 6 86 -31 104 -60 351 -61 515 0 107 -5 185 -13 210 l-13 40
-8 -38z m23 -643 c-1 -9 -10 -20 -18 -22 -12 -4 -13 -3 -2 10 7 9 9 24 6 34
-5 15 -4 16 5 8 7 -7 11 -20 9 -30z"/>
<path d="M776 1995 c-3 -9 -11 -66 -17 -128 -10 -103 -39 -254 -89 -463 -11
-45 -20 -95 -19 -110 1 -27 2 -26 21 15 18 40 32 93 88 331 11 50 22 144 26
228 6 134 4 162 -10 127z"/>
<path d="M4058 1773 c7 -12 34 -59 62 -104 27 -45 50 -88 50 -94 0 -7 10 -20
21 -31 l22 -19 -15 30 c-9 17 -19 45 -23 63 -6 31 -77 135 -111 163 -16 13
-16 12 -6 -8z"/>
<path d="M905 1690 c-8 -13 3 -50 15 -50 12 0 23 37 15 50 -3 5 -10 10 -15 10
-5 0 -12 -5 -15 -10z"/>
<path d="M2918 1496 c-27 -11 -57 -43 -58 -59 0 -4 24 -5 53 -2 32 4 47 3 39
-3 -7 -5 -10 -16 -7 -24 4 -9 2 -19 -4 -23 -7 -3 -11 2 -11 14 0 12 -7 21 -15
21 -16 0 -20 -27 -6 -49 5 -8 16 -11 29 -7 21 7 32 -14 32 -67 0 -35 20 -43
59 -22 37 19 40 41 6 57 -30 13 -30 16 -8 48 12 17 13 25 5 28 -7 2 -12 21
-12 42 0 57 -39 74 -102 46z"/>
<path d="M4675 1500 c-3 -5 -1 -10 4 -10 6 0 11 5 11 10 0 6 -2 10 -4 10 -3 0
-8 -4 -11 -10z"/>
<path d="M1095 1340 c3 -5 8 -10 11 -10 2 0 4 5 4 10 0 6 -5 10 -11 10 -5 0
-7 -4 -4 -10z"/>
<path d="M2887 1329 c-20 -12 -23 -49 -4 -49 15 0 40 47 29 54 -4 2 -15 0 -25
-5z"/>
<path d="M980 1275 c0 -8 7 -15 15 -15 8 0 15 7 15 15 0 8 -7 15 -15 15 -8 0
-15 -7 -15 -15z"/>
<path d="M2305 1250 c-98 -5 -87 -6 95 -8 254 -4 532 -4 545 -2 6 1 -8 6 -30
10 -47 9 -451 9 -610 0z"/>
<path d="M3073 1254 c-35 -15 3 -19 180 -22 196 -3 301 3 292 18 -5 8 -452 12
-472 4z"/>
<path d="M660 1240 c8 -6 69 -10 134 -9 73 1 114 4 105 10 -8 5 -68 9 -134 9
-82 0 -115 -3 -105 -10z"/>
<path d="M1265 1169 c-600 -3 -1129 -7 -1177 -8 l-88 -1 0 -580 0 -580 1295 0
1295 0 0 35 c0 44 18 81 60 120 18 17 41 48 53 70 24 45 24 63 19 573 -1 161
0 297 3 302 8 12 45 13 64 1 10 -7 17 -70 27 -267 7 -143 13 -314 14 -381 l0
-122 -42 -50 c-24 -28 -63 -78 -87 -112 l-44 -61 26 -54 27 -54 54 0 c50 0 54
2 60 26 4 14 6 67 5 117 -1 85 13 177 28 177 3 0 3 -73 -1 -162 -3 -89 -3
-159 0 -155 3 3 16 42 29 86 18 60 22 94 18 135 -5 48 -3 55 15 60 33 11 72
53 72 78 l-1 23 -19 -25 c-44 -55 -43 -55 -50 -34 -7 18 -8 17 -14 -4 -9 -28
-26 -19 -26 14 0 17 -4 23 -12 18 -8 -5 -9 8 -4 51 12 109 127 325 205 387 16
13 51 57 79 98 59 90 148 175 242 231 39 23 70 44 70 48 0 8 -790 8 -2195 0z"/>
<path d="M3228 943 c-53 -56 -87 -131 -103 -225 -8 -46 -26 -118 -40 -161 -14
-43 -25 -90 -25 -105 0 -30 -51 -206 -99 -345 -17 -48 -31 -92 -31 -97 0 -6
45 -10 105 -10 l104 0 5 33 c2 17 12 97 21 177 9 80 27 203 41 275 28 150 69
495 59 495 -1 0 -17 -17 -37 -37z"/>
<path d="M3048 659 c-21 -37 -42 -79 -48 -94 -6 -15 -13 -25 -16 -23 -3 3 4
29 15 57 15 41 16 49 5 40 -29 -24 -47 -74 -56 -154 -4 -44 -9 -89 -11 -99 -1
-10 4 -21 11 -23 7 -3 12 4 12 16 0 11 20 58 44 104 82 158 121 315 44 176z"/>
<path d="M4774 525 c-30 -74 -65 -142 -99 -195 -19 -30 -44 -82 -55 -116 -11
-33 -38 -95 -60 -137 l-39 -77 69 0 69 0 10 38 c6 20 11 50 11 65 0 15 11 50
25 77 14 27 25 60 25 74 0 13 14 50 30 82 17 32 39 87 49 123 10 36 22 75 26
86 6 17 5 17 -5 5 -9 -11 -13 -12 -17 -2 -9 22 -24 13 -39 -23z"/>
<path d="M2763 390 c0 -36 2 -50 4 -32 2 17 2 47 0 65 -2 17 -4 3 -4 -33z"/>
<path d="M3474 126 c-6 -6 -40 -37 -74 -68 -59 -54 -61 -58 -36 -58 26 0 92
41 109 67 4 7 16 13 25 13 11 0 13 3 6 8 -7 4 -14 17 -15 28 -3 17 -7 19 -15
10z"/>
<path d="M3540 114 c0 -8 5 -12 10 -9 6 3 10 10 10 16 0 5 -4 9 -10 9 -5 0
-10 -7 -10 -16z"/>
<path d="M2615 78 c-10 -26 11 -73 33 -76 26 -4 26 -3 6 48 -16 40 -31 51 -39
28z"/>
<path d="M3490 10 c0 -5 7 -10 15 -10 8 0 15 5 15 10 0 6 -7 10 -15 10 -8 0
-15 -4 -15 -10z"/>
</g>
</svg>
